# xmcd
# 
# Track frame offsets:
#     150
#     19865
#     36249
#     50139
#     67569
#     83495
#     96229
#     111596
#     126658
#     143947
#     157712
#     173387
#     189452
# 
# Disc length: 2808
# 
# Revision: 0
# Processed by: cddbd v1.5.2PL0 Copyright (c) Steve Scherf et al.
# Submitted via: fre:ac v1.0.17
# 
DISCID=a80af60d
DTITLE=Dierks Bentley - Dierks Bentley
DYEAR=2003
DGENRE=Country*
TTITLE0=What Was I Thinkin'
TTITLE1=Wish It Would Break
TTITLE2=Forget About You
TTITLE3=I Can Only Think Of One
TTITLE4=My Last Name
TTITLE5=Bartenders, Etc...
TTITLE6=Is Anybody Loving You These Days
TTITLE7=My Love Will Follow You
TTITLE8=How Am I Doin'
TTITLE9=Distant Shore
TTITLE10=I Bought The Shoes
TTITLE11=Whiskey Tears
TTITLE12=Train Travelin' (with Del McCoury Band)
EXTD=
EXTT0=
EXTT1=
EXTT2=
EXTT3=
EXTT4=
EXTT5=
EXTT6=
EXTT7=
EXTT8=
EXTT9=
EXTT10=
EXTT11=
EXTT12=
PLAYORDER=
